<svg xmlns="http://www.w3.org/2000/svg" viewBox="0 0 1990.31 2249.45" x="0px" y="0px"><title>Manos</title><g data-name="Capa 2"><path d="M1951.24,477.13a600.28,600.28,0,0,0-555.79-374.71h-1A598.85,598.85,0,0,0,1000.09,250,600.55,600.55,0,0,0,7.69,645.61a600.67,600.67,0,0,0,86.24,372.44,179.42,179.42,0,0,0,2.36,251.34h0a178.88,178.88,0,0,0,126.88,52.47c3.68,0,7.36-.12,11-.35-.22,3.69-.35,7.39-.35,11.12a178.26,178.26,0,0,0,52.55,126.88h0A178.88,178.88,0,0,0,413.28,1512c3.68,0,7.36-.12,11-.35-.22,3.69-.35,7.39-.35,11.12a178.26,178.26,0,0,0,52.55,126.88h0A178.88,178.88,0,0,0,603.4,1702.1c3.71,0,7.42-.13,11.12-.35a179.42,179.42,0,0,0,305.87,138l7.25-7.25a44.78,44.78,0,0,0,11.58,20,169.26,169.26,0,0,0,286.66-91.54,169.31,169.31,0,0,0,227.23-165.79c2.23.09,4.47.14,6.72.14A169.2,169.2,0,0,0,1629,1419.21c2.24.09,4.48.14,6.73.14a168.81,168.81,0,0,0,119.74-49.52c55.19-55.19,64.24-139.31,27.2-204l36.93-38.18a601.39,601.39,0,0,0,131.69-650.57ZM159.93,1205.75h0a89.43,89.43,0,0,1,0-126.48l144.6-144.6A89.43,89.43,0,0,1,431,1061.15l-144.6,144.6A89.53,89.53,0,0,1,159.93,1205.75ZM350,1395.87h0a89.43,89.43,0,0,1,0-126.48l144.6-144.6a89.43,89.43,0,0,1,126.48,126.48l-144.6,144.6A89.53,89.53,0,0,1,350,1395.87ZM540.16,1586h0a89.43,89.43,0,0,1,0-126.48l144.6-144.6a89.43,89.43,0,0,1,126.48,126.48L666.64,1586A89.53,89.53,0,0,1,540.16,1586Zm316.59,190.12a89.53,89.53,0,0,1-126.48,0h0a89.54,89.54,0,0,1,0-126.48L874.88,1505a89.43,89.43,0,1,1,126.48,126.48Zm258.32,12.71a79.43,79.43,0,0,1-112.21,0,44.78,44.78,0,0,0-20-11.58l82.09-82.09a180.52,180.52,0,0,0,27.89-36l29.37,25.71A79.45,79.45,0,0,1,1115.08,1788.82Zm576.71-482.62a79.34,79.34,0,0,1-112.2,0L1341.79,1068.4a45,45,0,0,0-63.64,63.64l118.9,118.89,118.9,118.9h0a79.34,79.34,0,0,1-112.19,112.22l0,0-118.9-118.89L1166,1244.25a45,45,0,1,0-63.64,63.64l118.89,118.89,118.89,118.89h0a79.34,79.34,0,0,1-112.22,112.19q-1.06-1.06-2.18-2l-38.45-33.66q-4.08-4.72-8.55-9.21a44.94,44.94,0,0,0-11.47-8.32L1117.4,1561a179.27,179.27,0,0,0-190.31-171.75c.22-3.69.35-7.39.35-11.12a179.29,179.29,0,0,0-190.47-179c.22-3.69.35-7.39.35-11.12a179.29,179.29,0,0,0-190.47-179c.22-3.69.35-7.39.35-11.12A178.26,178.26,0,0,0,494.65,871c-70-70-183.8-70-253.76,0l-81.23,81.23C49.43,755.11,82.59,504,244.54,342,341,245.54,469.27,192.41,605.7,192.41,726,192.41,840,233.73,931.37,309.65L578.19,600l-1,.85a108,108,0,0,0,24.36,178.89c43.07,20.49,97,31.29,153.4,31.29a447.42,447.42,0,0,0,54.7-3.37,479.67,479.67,0,0,0,133.6-37c48.65-21.3,95.29-50.9,138.63-88a18,18,0,0,1,18.44-3.17A586.75,586.75,0,0,0,1211.77,712l480,481.95a79.34,79.34,0,0,1,0,112.2Zm63.85-241.86-.53.54-32,33.06L1345.7,719a409.58,409.58,0,0,0,99.44-21.43c51.28-18.1,98.34-46.83,139.85-85.38a45,45,0,0,0-61.24-66C1383.5,676.46,1204.44,624.43,1134,596a107.69,107.69,0,0,0-110.6,18.24c-68.21,58.34-145.93,94.32-224.76,104-58,7.16-117.21-.27-158.41-19.88a17.28,17.28,0,0,1-9.9-13.61A17.71,17.71,0,0,1,636,668.95L1028.6,346.23l1-.85c1.68-1.47,3.36-3,5-4.64,199.13-197.76,522.59-197.19,721,1.27,96.47,96.47,149.6,224.73,149.6,361.16S1852.11,967.86,1755.64,1064.33Z" transform="translate(-4.93 -102.41)"/></g><text x="0" y="1814.56" fill="#000000" font-size="5px" font-weight="bold" font-family="'Helvetica Neue', Helvetica, Arial-Unicode, Arial, Sans-serif">Created by Linker</text><text x="0" y="1819.56" fill="#000000" font-size="5px" font-weight="bold" font-family="'Helvetica Neue', Helvetica, Arial-Unicode, Arial, Sans-serif">from the Noun Project</text></svg>