<svg xmlns="http://www.w3.org/2000/svg" xmlns:xlink="http://www.w3.org/1999/xlink" version="1.1" x="0px" y="0px" viewBox="0 0 100 125" style="enable-background:new 0 0 100 100;" xml:space="preserve"><g><path d="M53.085,8.66c-0.5,6.902-1.3,13.805-1.801,20.707c-0.3,3.901,0.3,7.903,0.7,11.004c1.3,9.503-0.9,17.306-1.901,26.409   c3.301-1.2,13.104-5.302,16.105-4.902c1.601,0.3,3.601,0.6,8.103-5.502c1.3-1.801,4.001,0.2,2.701,2.001   c-0.6,0.8-1.1,1.501-1.701,2.201c1.501,5.302,3.301,4.902,8.003,3.101c2.601-14.405-6.402-22.107-11.704-9.203   c-2.001,4.702-8.103,0.4-11.504,0.7c-0.7,0-1.1,0.6-1,2.501c0.2,2.201-3.201,2.501-3.401,0.3c-0.3-4.502,1.501-6.002,4.101-6.202   c1.701-0.1,8.403,1.901,8.703,1.4c2.701-6.602,8.503-11.904,15.005-6.002c-0.4-2.401-1.1-4.401-1.901-6.702   c-2.601,2.601-7.403,1.501-10.704,0.9c-2.301-0.5-7.803-1.501-7.503,2.601c0.1,0.9,0.4,2.001,1.2,3.401   c1,2.001-2.001,3.601-3.001,1.601c-1-1.801-1.501-3.401-1.601-4.802c-0.5-7.002,6.702-7.102,11.604-6.102   c2.801,0.5,7.803,1.901,8.503-2.101c-0.9-2.501-1.701-5.102-2.601-7.603c-2.101,4.301-1.4,5.302-6.902,3.701   c-4.602-1.3-3.701-0.1-7.202,3.901c-0.5,0.5-1.2,0.7-1.901,0.5c-2.401-0.9-3.601-1-4.001-0.5c-0.6,0.7-0.7,2.601-0.6,5.502   c0,2.201-3.401,2.301-3.401,0.1c-0.1-6.202,0.5-10.904,8.103-8.603c3.901-4.702,4.001-5.802,10.003-4.101   c0,0-0.6-3.501-3.401-2.501c-3.201,1.1-7.302,2.501-13.204-6.902c-1.1-1.901,1.701-3.701,2.901-1.801   c4.401,7.102,7.102,6.202,9.203,5.502c2.901-1.1,5.202-1.901,7.403,3.701l1.501-3.001c-1-3.301-2.501-6.102-4.401-8.503   c-3.301,1.4-2.501,0.7-3.001,4.502c-0.3,2.201-3.601,1.701-3.401-0.5c0.5-3.601,0.2-5.102,3.701-6.502   c-3-2.6-6.902-4.101-11.503-4.501C55.986,8.26,54.486,8.36,53.085,8.66L53.085,8.66z M72.692,63.279   c-3.101,2.601-5.202,2.301-7.002,2.001c-1.4-0.2-2.501-0.4-5.402,5.802c-0.9,2.101-4.001,0.7-3.001-1.4   c0.3-0.8,0.7-1.601,1.1-2.301l-8.503,3.101c0.6,4.602,1.801,8.703,1.901,13.605c0.2,4.301,0.1,7.102,5.602,7.503   c-1.1-1.4-1.1-2.601-0.3-3.801c0.7-1.2,2.201-1.901,3.701-2.701c1.2-0.6,2.501-1.3,2.801-1.801c0.9-1.701-7.403-5.802-8.203-6.302   c-2.001-1-0.4-4.001,1.501-3.001c9.303,4.902,11.004,8.103,9.803,10.704c-0.8,1.701-2.801,2.701-4.401,3.501   c-4.101,1.501-1.901,2.201-0.2,3.001c7.202-1.701,12.304-6.202,16.005-12.604c-2.701-3.701-3.201-3.301-3.801-2.801   c-2.001,1.601-4.401,3.401-10.804-2.301c-1.601-1.501,0.6-4.001,2.301-2.501c4.201,3.801,5.402,2.901,6.402,2.101   c2.001-1.501,3.601-2.801,7.603,2.201c1.1-2.501,2.001-5.102,2.701-7.803C77.694,69.081,74.593,68.281,72.692,63.279L72.692,63.279   z M58.787,94.99c-3.301,0.1-6.702-0.7-8.803-3.501c-1.801,2.501-4.802,3.401-7.803,3.501C17.974,95.69,7.67,60.478,14.572,41.071   c2.101-5.902,4.001-11.804,6.002-17.606C23.475,12.862,31.378,5.759,42.382,5.059c2.401-0.2,5.302,0.1,7.603,1   c1.601-0.9,5.702-1.2,7.603-1c11.004,0.7,18.906,7.803,21.807,18.406c2.001,5.802,3.901,11.704,6.002,17.606   C92.199,60.278,82.595,94.289,58.787,94.99L58.787,94.99z M46.583,70.381l-4.602-2.201c0.2,0.5,0.5,1,0.7,1.501   c1,2.101-2.101,3.501-3.001,1.4c-2.901-6.202-4.001-6.002-5.402-5.802c-1.801,0.3-3.901,0.6-7.002-2.001   c-1.901,5.002-5.002,5.802-9.803,4.201c0.7,2.701,1.501,5.302,2.701,7.803c3.901-5.002,5.602-3.701,7.603-2.201   c0.9,0.8,2.101,1.701,6.402-2.101c1.601-1.501,3.901,1,2.201,2.501c-6.302,5.702-8.703,3.901-10.704,2.301   c-0.6-0.5-1.1-0.9-3.801,2.801c3.601,6.402,8.803,10.904,16.005,12.604c2.201-1.901,3.401-1.2-0.2-3.001   c-1.701-0.9-3.501-1.801-4.401-3.401c-2.201-4.702,6.702-9.203,9.703-10.804c2.001-1,3.501,2.001,1.601,3.001   c-7.002,3.701-8.703,5.302-8.303,6.202c0.4,0.8,2.101,1.501,2.901,1.901c2.501,1.3,5.902,3.301,3.401,6.502   C52.785,90.888,47.083,76.784,46.583,70.381L46.583,70.381z M16.573,63.679c4.802,1.801,6.502,2.201,8.103-3.101   c-0.6-0.7-1.1-1.4-1.701-2.201c-1.3-1.801,1.4-3.801,2.701-2.001c4.502,6.102,6.402,5.802,8.103,5.502   c3.801-0.6,9.303,3.101,13.004,4.802c0.9-8.803,3.101-16.706,1.901-25.809c-0.5-3.301-1.1-7.503-0.8-11.804   c0.5-6.302,1.701-13.104,2.001-19.307c-2.001-1.2-5.102-1.5-7.302-1.4c-4.602,0.4-8.503,1.901-11.604,4.502   c3.601,1.4,3.301,2.901,3.701,6.502c0.3,2.201-3.001,2.701-3.301,0.5c-0.5-3.801,0.3-3.001-3.001-4.502   c-2.001,2.401-3.501,5.202-4.401,8.503l1.501,3.001c2.201-5.602,4.401-4.702,7.302-3.701c1.901,0.8,4.301,1.701,8.403-4.401   c1.2-1.801,4.001,0.1,2.701,1.901c-5.502,8.303-9.303,6.802-12.304,5.702c-1.2-0.4-2.801-0.3-3.301,2.501   c5.102-1.4,5.602-1.3,9.003,2.801l1.1,1.3c7.503-2.301,8.203,2.401,8.103,8.603c-0.1,2.201-3.401,2.101-3.401-0.1   c0.1-5.202,0.6-6.802-4.702-5.002c-0.6,0.2-1.3,0-1.801-0.5c-0.6-0.7-1.3-1.5-1.801-2.101c-2.501-2.901-1.901-2.801-5.502-1.801   c-1.4,0.5-4.201,1.801-5.002,0l-1.801-3.701c-0.9,2.501-1.701,5.102-2.601,7.603c0.5,2.601,2.601,2.901,4.902,2.701   c2.601-0.3,5.902-1.4,8.303-1.2c7.202,0.5,8.103,6.102,5.302,11.504c-1,2.001-4.001,0.4-3.001-1.601   c1.701-3.201,2.101-6.202-2.501-6.602c-2.001-0.1-5.602,1-7.803,1.3c-2.601,0.2-5.102,0-6.702-1.601   c-0.8,2.301-1.501,4.301-1.901,6.702c1.601-1.4,3.401-2.401,5.602-2.501c4.802-0.2,7.803,4.502,9.403,8.503   c0.2,0.5,7.002-1.501,8.703-1.4c2.601,0.2,4.401,1.701,4.001,6.202c-0.1,2.201-3.501,1.901-3.301-0.3c0.1-1.901-0.3-2.501-1-2.501   c-3.401-0.3-9.503,4.001-11.504-0.7c-1-2.501-3.101-6.502-6.202-6.402C14.572,48.274,15.773,58.777,16.573,63.679L16.573,63.679z"/></g><text x="0" y="115" fill="#000000" font-size="5px" font-weight="bold" font-family="'Helvetica Neue', Helvetica, Arial-Unicode, Arial, Sans-serif">Created by Angelica</text><text x="0" y="120" fill="#000000" font-size="5px" font-weight="bold" font-family="'Helvetica Neue', Helvetica, Arial-Unicode, Arial, Sans-serif">from the Noun Project</text></svg>